<?xml version="1.0" standalone="no"?><!DOCTYPE svg PUBLIC "-//W3C//DTD SVG 1.1//EN" "http://www.w3.org/Graphics/SVG/1.1/DTD/svg11.dtd"><svg t="1606292593811" class="icon" viewBox="0 0 1024 1024" version="1.1" xmlns="http://www.w3.org/2000/svg" p-id="2413" xmlns:xlink="http://www.w3.org/1999/xlink" width="200" height="200"><defs><style type="text/css"></style></defs><path d="M898.56 942.08h-762.88a48.4864 48.4864 0 0 1-48.64-48.21504V130.15552A48.4864 48.4864 0 0 1 135.68 81.92h762.88a48.48128 48.48128 0 0 1 48.64 48.22528v763.71456a48.48128 48.48128 0 0 1-48.64 48.22016zM146.7392 882.90304h740.75648V141.10208H146.7392v741.80096z" fill="#2966C1" p-id="2414"></path><path d="M671.232 534.92736H369.664c-28.59008 0-50.98496-20.09088-50.98496-45.74208V282.43456a29.9264 29.9264 0 0 1 59.84768 0v192.97792h283.8528V282.43456a29.9264 29.9264 0 0 1 59.84768 0v206.75072c-0.0256 25.6512-22.42048 45.74208-50.9952 45.74208z" fill="#FD9A16" p-id="2415"></path></svg>